<svg width="29" height="29" viewBox="0 0 29 29" fill="none" xmlns="http://www.w3.org/2000/svg">
<path fill-rule="evenodd" clip-rule="evenodd" d="M14.5 21.75C18.5041 21.75 21.75 18.5041 21.75 14.5C21.75 10.4959 18.5041 7.25 14.5 7.25C10.4959 7.25 7.25 10.4959 7.25 14.5C7.25 18.5041 10.4959 21.75 14.5 21.75ZM14.5 19.3333C17.1693 19.3333 19.3333 17.1693 19.3333 14.5C19.3333 11.8306 17.1693 9.66667 14.5 9.66667C11.8306 9.66667 9.66667 11.8306 9.66667 14.5C9.66667 17.1693 11.8306 19.3333 14.5 19.3333Z" fill="white"/>
<path d="M21.75 6.04163C21.0826 6.04163 20.5417 6.58262 20.5417 7.24996C20.5417 7.9173 21.0826 8.45829 21.75 8.45829C22.4174 8.45829 22.9583 7.9173 22.9583 7.24996C22.9583 6.58262 22.4174 6.04163 21.75 6.04163Z" fill="white"/>
<path fill-rule="evenodd" clip-rule="evenodd" d="M1.99854 5.16695C1.20834 6.71781 1.20834 8.748 1.20834 12.8084V16.1917C1.20834 20.2521 1.20834 22.2823 1.99854 23.8331C2.69362 25.1973 3.80272 26.3064 5.16691 27.0015C6.71777 27.7917 8.74796 27.7917 12.8083 27.7917H16.1917C20.252 27.7917 22.2823 27.7917 23.833 27.0015C25.1973 26.3064 26.3064 25.1973 27.0014 23.8331C27.7917 22.2823 27.7917 20.2521 27.7917 16.1917V12.8084C27.7917 8.748 27.7917 6.71781 27.0014 5.16695C26.3064 3.80276 25.1973 2.69366 23.833 1.99858C22.2823 1.20837 20.252 1.20837 16.1917 1.20837H12.8083C8.74796 1.20837 6.71777 1.20837 5.16691 1.99858C3.80272 2.69366 2.69362 3.80276 1.99854 5.16695ZM16.1917 3.62504H12.8083C10.7383 3.62504 9.33105 3.62693 8.24335 3.71579C7.18383 3.80235 6.64202 3.95925 6.26405 4.15184C5.3546 4.61523 4.6152 5.35464 4.1518 6.26409C3.95922 6.64206 3.80231 7.18387 3.71575 8.24339C3.62689 9.33109 3.625 10.7383 3.625 12.8084V16.1917C3.625 18.2618 3.62689 19.6689 3.71575 20.7567C3.80231 21.8163 3.95922 22.3581 4.1518 22.736C4.6152 23.6454 5.3546 24.3848 6.26405 24.8482C6.64202 25.0408 7.18383 25.1978 8.24335 25.2843C9.33105 25.3731 10.7383 25.375 12.8083 25.375H16.1917C18.2618 25.375 19.6689 25.3731 20.7566 25.2843C21.8162 25.1978 22.358 25.0408 22.736 24.8482C23.6454 24.3848 24.3848 23.6454 24.8482 22.736C25.0408 22.3581 25.1977 21.8163 25.2843 20.7567C25.3731 19.6689 25.375 18.2618 25.375 16.1917V12.8084C25.375 10.7383 25.3731 9.33109 25.2843 8.24339C25.1977 7.18387 25.0408 6.64206 24.8482 6.26409C24.3848 5.35464 23.6454 4.61523 22.736 4.15184C22.358 3.95925 21.8162 3.80235 20.7566 3.71579C19.6689 3.62693 18.2618 3.62504 16.1917 3.62504Z" fill="white"/>
</svg>
