<svg width="29" height="29" viewBox="0 0 29 29" fill="none" xmlns="http://www.w3.org/2000/svg">
<path fill-rule="evenodd" clip-rule="evenodd" d="M11.8879 22.2898C12.0958 22.6794 12.304 23.0306 12.503 23.3417C10.3886 22.8663 8.55386 21.6518 7.28429 19.9838C8.12219 19.5119 9.19536 19.0228 10.4855 18.6649C10.8522 20.103 11.3695 21.3178 11.8879 22.2898ZM13.4872 21.4368C13.0368 20.5925 12.5855 19.5381 12.2604 18.2889C12.9603 18.1849 13.7076 18.125 14.5001 18.125C15.2925 18.125 16.0398 18.1849 16.7396 18.2887C16.4145 19.5381 15.9632 20.5925 15.5128 21.4368C15.1518 22.1138 14.7921 22.6543 14.5 23.0498C14.2079 22.6543 13.8482 22.1138 13.4872 21.4368ZM11.7813 14.5C11.7813 15.2058 11.8287 15.8757 11.9125 16.5081C12.72 16.3843 13.5834 16.3125 14.5001 16.3125C15.4168 16.3125 16.2801 16.3842 17.0875 16.5081C17.1713 15.8756 17.2188 15.2058 17.2188 14.5C17.2188 13.7942 17.1713 13.1244 17.0875 12.4919C16.2801 12.6157 15.4168 12.6875 14.5001 12.6875C13.5834 12.6875 12.72 12.6157 11.9125 12.4919C11.8287 13.1243 11.7813 13.7942 11.7813 14.5ZM10.1341 12.1181C10.0289 12.8661 9.96875 13.6607 9.96875 14.5C9.96875 15.3393 10.0289 16.1339 10.1341 16.8819C8.59533 17.295 7.32107 17.8775 6.33558 18.4381C5.7601 17.2473 5.4375 15.9113 5.4375 14.5C5.4375 13.0887 5.7601 11.7528 6.33557 10.5619C7.32095 11.1224 8.59524 11.705 10.1341 12.1181ZM12.2604 10.7112C12.9603 10.8151 13.7076 10.875 14.5001 10.875C15.2925 10.875 16.0398 10.8151 16.7396 10.7112C16.4145 9.46191 15.9632 8.4075 15.5128 7.5632C15.1518 6.88622 14.7921 6.34564 14.5 5.95022C14.2079 6.34564 13.8482 6.88622 13.4872 7.56318C13.0368 8.40747 12.5855 9.46189 12.2604 10.7112ZM18.8658 12.1183C18.9711 12.8662 19.0313 13.6608 19.0313 14.5C19.0313 15.3393 18.9711 16.1338 18.8658 16.8817C20.4046 17.295 21.679 17.8775 22.6645 18.4381C23.2399 17.2471 23.5625 15.9112 23.5625 14.5C23.5625 13.0888 23.2399 11.7528 22.6645 10.562C21.6791 11.1224 20.4048 11.705 18.8658 12.1183ZM21.7157 9.01632C20.8777 9.48821 19.8046 9.97727 18.5146 10.3352C18.1478 8.89701 17.6306 7.68221 17.1122 6.71026C16.9042 6.32051 16.696 5.96947 16.497 5.65826C18.6115 6.13378 20.4462 7.34831 21.7157 9.01632ZM10.4855 10.3352C9.19543 9.97722 8.1223 9.48816 7.2843 9.01626C8.55386 7.34829 10.3886 6.13378 12.5029 5.65826C12.304 5.96947 12.0958 6.3205 11.8879 6.71024C11.3695 7.68218 10.8522 8.89697 10.4855 10.3352ZM18.5146 18.6648C18.1478 20.103 17.6306 21.3178 17.1122 22.2898C16.9042 22.6794 16.696 23.0306 16.497 23.3417C18.6115 22.8663 20.4462 21.6516 21.7158 19.9837C20.8778 19.5118 19.8047 19.0228 18.5146 18.6648ZM14.5 25.375C20.5061 25.375 25.375 20.5061 25.375 14.5C25.375 8.49391 20.5061 3.625 14.5 3.625C8.49391 3.625 3.625 8.49391 3.625 14.5C3.625 20.5061 8.49391 25.375 14.5 25.375Z" fill="white"/>
</svg>
